<?xml version="1.0" encoding="UTF-8" standalone="no"?>
<svg width="14px" height="14px" viewBox="0 0 14 14" version="1.1" xmlns="http://www.w3.org/2000/svg" xmlns:xlink="http://www.w3.org/1999/xlink" xmlns:sketch="http://www.bohemiancoding.com/sketch/ns">
    <!-- Generator: Sketch 3.4 (15575) - http://www.bohemiancoding.com/sketch -->
    <title>Close Button</title>
    <desc>Created with Sketch.</desc>
    <defs></defs>
    <g id="–-Volunteer" stroke="none" stroke-width="1" fill="none" fill-rule="evenodd" sketch:type="MSPage">
        <g id="Desktop" sketch:type="MSArtboardGroup" transform="translate(-824.000000, -1320.000000)" fill="#FFFFFF">
            <g id="Sign-Up-Form" sketch:type="MSLayerGroup" transform="translate(259.000000, 470.000000)">
                <g id="Clear-From-Button" transform="translate(565.000000, 850.000000)" sketch:type="MSShapeGroup">
                    <path d="M0.124462172,13.5969662 C0.207189445,13.6805854 0.315795505,13.7221806 0.424401566,13.7221806 C0.533007627,13.7221806 0.641613687,13.6801566 0.724765202,13.5965374 L6.78803793,7.46060254 L12.8513107,13.5965374 C12.9340379,13.6805854 13.042644,13.7221806 13.1516743,13.7221806 C13.2602804,13.7221806 13.3688864,13.6801566 13.4516137,13.5969662 C13.6174925,13.4297278 13.6174925,13.1582869 13.4520379,12.9906197 L7.3947046,6.86111712 L13.4516137,0.732043362 C13.6170682,0.564376123 13.6170682,0.2929353 13.4511894,0.125696878 C13.2848864,-0.0419703603 13.0167652,-0.0419703603 12.8513107,0.126125695 L6.78761369,6.26206051 L0.72434096,0.126125695 C0.558462172,-0.0415415439 0.289916718,-0.0415415439 0.124462172,0.125696878 C-0.0414166157,0.2929353 -0.0414166157,0.564376123 0.12403793,0.732043362 L6.18052278,6.86111712 L0.12403793,12.9906197 C-0.0414166157,13.1578581 -0.0414166157,13.4297278 0.124462172,13.5969662" id="Close-Button"></path>
                </g>
            </g>
        </g>
    </g>
</svg>