<?xml version="1.0" encoding="UTF-8" standalone="no"?>
<svg width="15px" height="11px" viewBox="0 0 15 11" version="1.1" xmlns="http://www.w3.org/2000/svg" xmlns:xlink="http://www.w3.org/1999/xlink" xmlns:sketch="http://www.bohemiancoding.com/sketch/ns">
    <!-- Generator: Sketch 3.4 (15575) - http://www.bohemiancoding.com/sketch -->
    <title>Menu Icon Copy</title>
    <desc>Created with Sketch.</desc>
    <defs></defs>
    <g id="HOME" stroke="none" stroke-width="1" fill="none" fill-rule="evenodd" sketch:type="MSPage">
        <g id="Desktop" sketch:type="MSArtboardGroup" transform="translate(-1325.000000, -120.000000)" fill="#FFFFFF">
            <g id="Primary-Nav" sketch:type="MSLayerGroup" transform="translate(0.000000, 100.000000)">
                <g id="Menu" transform="translate(1285.000000, 20.000000)" sketch:type="MSShapeGroup">
                    <path d="M40.4545455,0.909090909 L54.0909091,0.909090909 C54.3418182,0.909090909 54.5454545,0.705909091 54.5454545,0.454545455 C54.5454545,0.203181818 54.3418182,0 54.0909091,0 L40.4545455,0 C40.2036364,0 40,0.203181818 40,0.454545455 C40,0.705909091 40.2031818,0.909090909 40.4545455,0.909090909 L40.4545455,0.909090909 Z M54.0909091,10 L40.4545455,10 C40.2036364,10 40,10.2031818 40,10.4545455 C40,10.7059091 40.2031818,10.9090909 40.4545455,10.9090909 L54.0909091,10.9090909 C54.3418182,10.9090909 54.5454545,10.7059091 54.5454545,10.4545455 C54.5454545,10.2031818 54.3418182,10 54.0909091,10 L54.0909091,10 Z M54.0909091,5 L40.4545455,5 C40.2036364,5 40,5.20318182 40,5.45454545 C40,5.70590909 40.2031818,5.90909091 40.4545455,5.90909091 L54.0909091,5.90909091 C54.3418182,5.90909091 54.5454545,5.70590909 54.5454545,5.45454545 C54.5454545,5.20318182 54.3418182,5 54.0909091,5 L54.0909091,5 Z" id="Menu-Icon-Copy"></path>
                </g>
            </g>
        </g>
    </g>
</svg>